<?xml version="1.0" encoding="UTF-8" standalone="no" ?>
<!DOCTYPE svg PUBLIC "-//W3C//DTD SVG 1.1//EN" "http://www.w3.org/Graphics/SVG/1.1/DTD/svg11.dtd">
<svg xmlns="http://www.w3.org/2000/svg" xmlns:xlink="http://www.w3.org/1999/xlink" version="1.1" width="1280" height="1024" viewBox="0 0 1280 1024" xml:space="preserve">
<desc>Created with Fabric.js 5.3.0</desc>
<defs>
</defs>
<g transform="matrix(1 0 0 1 640 512)" id="background-logo"  >
<rect style="stroke: none; stroke-width: 0; stroke-dasharray: none; stroke-linecap: butt; stroke-dashoffset: 0; stroke-linejoin: miter; stroke-miterlimit: 4; fill: rgb(255,255,255); fill-opacity: 0; fill-rule: nonzero; opacity: 1;"  paint-order="stroke"  x="-640" y="-512" rx="0" ry="0" width="1280" height="1024" />
</g>
<g transform="matrix(3.176233430816007 0 0 3.176233430816007 640 511.0934664246824)" id="logo-logo"  >
<g style=""  paint-order="stroke"   >
		<g transform="matrix(0.06175 0 0 -0.06175 13.795248677620407 16.642700873364163)"  >
<path style="stroke: none; stroke-width: 1; stroke-dasharray: none; stroke-linecap: butt; stroke-dashoffset: 0; stroke-linejoin: miter; stroke-miterlimit: 4; fill: rgb(239,239,237); fill-rule: nonzero; opacity: 1;"  paint-order="stroke"  transform=" translate(-9825.525803433633, -5670.15)" d="M 9626.79 5338.59 C 9480.970000000001 5406.96 9430.460000000001 5526.13 9418.26 5561.68 C 9497.79 5559.59 9609.89 5633.8 9614.86 5637.12 L 9608.24 5650.68 C 9568.32 5637.52 9527.33 5639.06 9486.41 5655.2300000000005 C 9422.78 5680.370000000001 9378.75 5733.360000000001 9370.33 5744.02 C 9369.02 5886.21 9430.34 5976.660000000001 9449.78 6001.71 L 9514.69 5917.03 L 9519.76 5918.59 C 9577.83 5936.46 9648.85 5916.96 9698.2 5897.47 C 9752.11 5876.17 9792.560000000001 5850.21 9792.960000000001 5849.95 C 9833.400000000001 5815.95 9815.900000000001 5769.29 9815.130000000001 5767.32 L 9811.34 5757.53 L 9821.82 5756.929999999999 C 9928.93 5751.089999999999 10090.4 5890.889999999999 10134 5930.57 L 10173.4 5631.15 C 10179.8 5582.379999999999 10212.199999999999 5540.86 10257.9 5522.79 L 10278.8 5514.53 C 10280.099999999999 5514.0199999999995 10280.5 5512.96 10280.699999999999 5512.37 C 10280.8 5511.7699999999995 10280.8 5510.63 10279.8 5509.62 C 10262.4 5492.21 10252.3 5483.5 10231.4 5491.73 C 10218.199999999999 5496.959999999999 10202 5508.709999999999 10182 5527.66 C 10164.4 5544.26 10147.9 5555.49 10131.5 5561.97 C 10098.6 5574.9400000000005 10073.2 5566.070000000001 10050.8 5558.25 C 10040.199999999999 5554.58 10030.199999999999 5551.11 10020.5 5550.25 C 10009.1 5549.26 9999.34 5550.37 9991.3 5553.54 C 9979.009999999998 5558.4 9975.109999999999 5566.45 9974.949999999999 5566.79 C 9961.14 5598.63 10041.599999999999 5673.74 10095.599999999999 5713.6 L 10089.699999999999 5727.21 C 9928.869999999999 5697.56 9907.249999999998 5561.49 9904.419999999998 5530.81 C 9738.669999999998 5495.09 9645.909999999998 5367.47 9626.789999999999 5338.59" stroke-linecap="round" />
</g>
		<g transform="matrix(0.06175 0 0 -0.06175 24.24466867762044 38.88835087336423)"  >
<path style="stroke: none; stroke-width: 1; stroke-dasharray: none; stroke-linecap: butt; stroke-dashoffset: 0; stroke-linejoin: miter; stroke-miterlimit: 4; fill: rgb(239,239,237); fill-rule: nonzero; opacity: 1;"  paint-order="stroke"  transform=" translate(-9994.741528745335, -5309.908578106737)" d="M 9691.5 5249.24 C 9824.66 5500.75 10005.9 5494.44 10136.9 5442.69 C 10164.1 5431.96 10191.9 5418.2 10219.6 5401.78 C 10278.4 5366.98 10339 5331.08 10260.9 5148.36 C 10260.3 5204.53 10241.3 5299.389999999999 10127.3 5344.41 C 10103.5 5353.83 10076.3 5360.7 10046.5 5364.83 C 9883.38 5376.67 9747.64 5291.25 9691.5 5249.24" stroke-linecap="round" />
</g>
		<g transform="matrix(0.06175 0 0 -0.06175 -1.414261322379616 86.21682087336427)"  >
<path style="stroke: none; stroke-width: 1; stroke-dasharray: none; stroke-linecap: butt; stroke-dashoffset: 0; stroke-linejoin: miter; stroke-miterlimit: 4; fill: rgb(239,239,237); fill-rule: nonzero; opacity: 1;"  paint-order="stroke"  transform=" translate(-9579.226169454541, -4543.481448013845)" d="M 9118.32 4989.36 L 9117.32 4971.009999999999 C 9109.75 4832.179999999999 9152.65 4716.719999999999 9165.08 4689.19 C 9198.25 4760.33 9265.16 4812.8099999999995 9267.89 4813.4 L 9281.81 4816.389999999999 L 9276.58 4803.15 C 9212.27 4640.379999999999 9284.86 4456.23 9304.89 4410.0199999999995 C 9399.55 4546.129999999999 9462.34 4589.749999999999 9465.359999999999 4591.07 L 9480.849999999999 4597.78 L 9475.64 4581.73 C 9396.51 4337.94 9459.73 4203.889999999999 9489.33 4160.98 L 9683.31 4517.549999999999 C 9683.31 4517.549999999999 9629.83 4172.3099999999995 9652.38 3945.0499999999993 C 9882.48 4135.389999999999 10013.5 4392.169999999999 10066.9 4515.109999999999 C 10072.5 4527.8899999999985 10091.699999999999 4522.079999999999 10089.3 4508.359999999999 C 10072.099999999999 4409.949999999999 10025.5 4279.419999999999 10003.5 4238.8499999999985 C 10242.5 4462.229999999999 10258.9 4795.1799999999985 10232.1 4961.259999999998 C 10225.800000000001 5000.669999999998 10213.7 5038.539999999998 10199.5 5033.089999999998 C 10096.6 4993.459999999998 9983.68 4989.819999999998 9981.81 4989.1399999999985 L 9976.48 4987.239999999999 L 9973.119999999999 4991.789999999999 C 9933.029999999999 5046.099999999999 9870.16 5090.439999999999 9786.249999999998 5123.589999999999 C 9775.319999999998 5127.909999999999 9764.589999999998 5131.8099999999995 9754.199999999999 5135.319999999999 C 9694.849999999999 5155.409999999999 9630.32 5128.239999999999 9604.099999999999 5072.129999999999 C 9564.589999999998 4987.609999999999 9507.019999999999 4880.409999999999 9457.099999999999 4849.73 L 9453.46 4847.5 L 8916.839999999998 5119.92 C 8916.839999999998 5119.92 9028.88 4987.06 9010.769999999999 4893.61 C 9010.769999999999 4893.61 9073.89 4901.259999999999 9118.319999999998 4989.36" stroke-linecap="round" />
</g>
		<g transform="matrix(0.06175 0 0 -0.06175 24.04194867762044 49.0272308733642)"  >
<path style="stroke: none; stroke-width: 1; stroke-dasharray: none; stroke-linecap: butt; stroke-dashoffset: 0; stroke-linejoin: miter; stroke-miterlimit: 4; fill: rgb(239,239,237); fill-rule: nonzero; opacity: 1;"  paint-order="stroke"  transform=" translate(-9991.458649622498, -5145.721832415291)" d="M 9950.91 5136.29 C 9884.8 5162.42 9867.77 5180.94 9868.02 5187.08 C 9868.09 5189.09 9871.57 5192.44 9881 5195.55 C 9890.78 5194.41 9946.44 5187.14 10006.9 5163.25 C 10045.8 5147.91 10078.9 5128.83 10105.5 5106.54 C 10111.4 5101.59 10113.9 5098.48 10114.9 5096.83 C 10100.5 5092.03 10028.199999999999 5105.76 9950.93 5136.29 L 9950.91 5136.29" stroke-linecap="round" />
</g>
		<g transform="matrix(0.06175 0 0 -0.06175 -29.827701322379653 26.244220873364156)"  >
<path style="stroke: none; stroke-width: 1; stroke-dasharray: none; stroke-linecap: butt; stroke-dashoffset: 0; stroke-linejoin: miter; stroke-miterlimit: 4; fill: rgb(239,239,237); fill-rule: nonzero; opacity: 1;"  paint-order="stroke"  transform=" translate(-9119.104999999998, -5514.665000000001)" d="M 9443.62 4950.95 C 9397.050000000001 4977.23 9082.460000000001 5153.29 8852.67 5244.07 C 8775.04 5274.75 8714.25 5292.86 8671.73 5297.98 C 8682 5361.44 8750.029999999999 5784.0199999999995 8764.199999999999 5912.87 C 8766.369999999999 5932.63 8779.289999999999 5949.43 8797.929999999998 5956.75 C 8856.13 5979.54 9006.199999999999 6034.52 9164.729999999998 6061.93 C 9040.159999999998 5712.64 9163.419999999998 5400.39 9193.989999999998 5332.110000000001 L 8962.039999999997 5376.700000000001 C 8954.879999999997 5377.510000000001 8948.979999999998 5373.39 8947.389999999998 5366.990000000001 C 8945.799999999997 5360.6 8949.109999999997 5354.200000000001 8955.229999999998 5351.780000000001 L 9345.229999999998 5197.6900000000005 C 9355.259999999998 5193.7300000000005 9366.069999999998 5197.01 9372.169999999998 5205.860000000001 C 9378.289999999999 5214.77 9377.46 5226.14 9370.129999999997 5234.130000000001 C 9087.999999999998 5541.500000000001 9201.659999999998 5948.460000000001 9246.459999999997 6073.200000000001 C 9277.999999999998 6076.470000000001 9306.619999999997 6078.18 9333.429999999997 6078.380000000001 C 9298.499999999996 6000.270000000001 9112.659999999996 5527.510000000001 9566.479999999996 5214.140000000001 C 9558.199999999995 5185.800000000001 9515.419999999996 5047.470000000001 9443.619999999995 4950.950000000002" stroke-linecap="round" />
</g>
		<g transform="matrix(0.06175 0 0 -0.06175 -0.6276113223796074 -4.385429126635756)"  >
<path style="stroke: none; stroke-width: 1; stroke-dasharray: none; stroke-linecap: butt; stroke-dashoffset: 0; stroke-linejoin: miter; stroke-miterlimit: 4; fill: rgb(239,239,237); fill-rule: nonzero; opacity: 1;"  paint-order="stroke"  transform=" translate(-9591.965068436148, -6010.675130723857)" d="M 8684.89 6021.7 C 8838.4 6086.91 9473.769999999999 6330.75 9991.789999999999 6145.23 C 10001.9 6141.62 10011.9 6137.83 10021.9 6133.889999999999 C 10055 6120.829999999999 10087.3 6105.98 10117.9 6089.749999999999 C 10172.9 6060.689999999999 10210.4 6005.669999999999 10218.5 5942.529999999999 L 10257.5 5635.559999999999 C 10259.8 5618.249999999998 10271.2 5603.519999999999 10287.4 5597.109999999999 C 10287.5 5597.0999999999985 10287.5 5597.089999999998 10287.5 5597.079999999999 C 10301.9 5591.919999999999 10316.2 5593.099999999999 10328.2 5599.789999999999 C 10340.800000000001 5606.789999999999 10349.5 5618.939999999999 10352.1 5633.109999999999 L 10389.2 5838.579999999999 C 10393 5859.559999999999 10405.800000000001 5877.469999999999 10424.300000000001 5887.749999999999 C 10442.300000000001 5897.7699999999995 10463.500000000002 5899.599999999999 10482.6 5892.759999999999 C 10482.6 5892.759999999999 10485.1 5891.839999999999 10485.2 5891.78 C 10488.800000000001 5919.46 10495.1 5974.32 10498.900000000001 6044.75 C 10500.400000000001 6072.18 10489.800000000001 6098.73 10469.900000000001 6117.62 C 10370.2 6212.19 10253.900000000001 6286.099999999999 10124.300000000001 6337.3 C 10112.6 6341.9400000000005 10100.800000000001 6346.38 10089.000000000002 6350.610000000001 C 9612.800000000001 6521.14 9068.480000000001 6369.68 8786.380000000001 6264.210000000001 C 8763.43 6255.610000000001 8745.550000000001 6237.340000000001 8737.380000000001 6214.070000000001 C 8713.37 6145.830000000001 8695.730000000001 6081.200000000001 8684.890000000001 6021.700000000001" stroke-linecap="round" />
</g>
		<g transform="matrix(0.06175 0 0 -0.06175 71.75906867762035 -47.64000912663573)"  >
<path style="stroke: none; stroke-width: 1; stroke-dasharray: none; stroke-linecap: butt; stroke-dashoffset: 0; stroke-linejoin: miter; stroke-miterlimit: 4; fill: rgb(239,239,237); fill-rule: nonzero; opacity: 1;"  paint-order="stroke"  transform=" translate(-10764.179662600993, -6711.130604941071)" d="M 10600 6291.81 C 10605.7 6289.77 10611.7 6290.56 10616.7 6294.030000000001 C 10781.800000000001 6407.450000000001 11046 6666.800000000001 10960.6 7129.59 C 10960.4 7130.57 10960.1 7131.1 10959.300000000001 7131.38 C 10958.500000000002 7131.66 10957.7 7131.58 10957.2 7131.38 C 10913.300000000001 7005.3 10788.800000000001 6705.4800000000005 10562.900000000001 6616.71 C 10554.400000000001 6613.38 10549.7 6604.38 10551.600000000002 6595.3 C 10570.200000000003 6506.29 10582.300000000003 6409.85 10587.500000000002 6308.650000000001 C 10587.900000000001 6301.150000000001 10592.500000000002 6294.780000000001 10599.500000000002 6292.030000000001 L 10600.000000000002 6291.81" stroke-linecap="round" />
</g>
		<g transform="matrix(0.06175 0 0 -0.06175 -32.31562132237957 -81.04000912663577)"  >
<path style="stroke: none; stroke-width: 1; stroke-dasharray: none; stroke-linecap: butt; stroke-dashoffset: 0; stroke-linejoin: miter; stroke-miterlimit: 4; fill: rgb(239,239,237); fill-rule: nonzero; opacity: 1;"  paint-order="stroke"  transform=" translate(-9078.816144926328, -7252.003034622662)" d="M 9023.74 6573.57 C 9041.369999999999 6567.25 9060.9 6568.799999999999 9077.3 6577.8099999999995 C 9359.759999999998 6732.919999999999 9365.39 6918.639999999999 9354.71 6991.28 C 9352.099999999999 7009 9341.859999999999 7024.8099999999995 9326.619999999999 7034.679999999999 C 8975.509999999998 7262.23 9136.55 7735.24 9222.089999999998 7928.039999999999 C 9222.599999999999 7929.239999999999 9222.669999999998 7930.3099999999995 9222.269999999999 7931.289999999999 C 9221.8 7932.419999999999 9220.669999999998 7933.509999999999 9219.429999999998 7933.999999999999 L 9219.409999999998 7933.999999999999 C 9217.609999999999 7934.649999999999 9216.399999999998 7933.999999999999 9215.539999999997 7933.359999999999 C 8531.379999999997 7425.449999999999 8870.659999999998 6783.979999999999 8990.959999999997 6599.479999999999 C 8998.409999999998 6588.029999999999 9009.039999999997 6579.339999999998 9021.709999999997 6574.339999999998 L 9023.739999999998 6573.569999999998" stroke-linecap="round" />
</g>
		<g transform="matrix(0.06175 0 0 -0.06175 29.253978677620353 -58.979829126635764)"  >
<path style="stroke: none; stroke-width: 1; stroke-dasharray: none; stroke-linecap: butt; stroke-dashoffset: 0; stroke-linejoin: miter; stroke-miterlimit: 4; fill: rgb(239,239,237); fill-rule: nonzero; opacity: 1;"  paint-order="stroke"  transform=" translate(-10075.861251736322, -6894.765201414877)" d="M 10393.3 6492.05 C 10395.5 6491.24 10397.9 6491.52 10400 6492.84 C 10402.2 6494.22 10403.5 6496.41 10403.6 6499.03 C 10409.2 6581.24 10405.800000000001 6798.41 10253.7 7038.51 C 10191 7137.66 10100.300000000001 7212.77 9991.66 7255.7 C 9986.2 7257.87 9980.69 7259.94 9975.15 7261.929999999999 C 9947.55 7271.799999999999 9918.96 7279.539999999999 9890.16 7284.889999999999 C 9843.07 7293.679999999999 9793.95 7300.669999999999 9746.68 7296.879999999999 C 9782.64 7291.3099999999995 9825.76 7281.699999999999 9871.69 7265.249999999999 C 9878.060000000001 7262.959999999999 9884.480000000001 7260.5599999999995 9890.93 7258.009999999999 C 10069.4 7187.499999999999 10272.5 7012.469999999999 10226.6 6579.0199999999995 C 10226.2 6575.459999999999 10228 6572.209999999999 10231.1 6570.91 C 10262.9 6557.54 10326.1 6529.59 10391.9 6492.67 L 10393.3 6492.05" stroke-linecap="round" />
</g>
		<g transform="matrix(0.06175 0 0 -0.06175 -8.67633132237961 -53.56616912663577)"  >
<path style="stroke: none; stroke-width: 1; stroke-dasharray: none; stroke-linecap: butt; stroke-dashoffset: 0; stroke-linejoin: miter; stroke-miterlimit: 4; fill: rgb(239,239,237); fill-rule: nonzero; opacity: 1;"  paint-order="stroke"  transform=" translate(-9461.625876495586, -6807.097533485612)" d="M 8817.9 6386.65 C 8820.39 6385.759999999999 8822.99 6385.8099999999995 8825.67 6386.79 C 9008.83 6453.95 9290.98 6534.91 9595.41 6539.5 C 9885.75 6626.24 10052.9 6827.95 10113.3 6914.2 C 10070.8 7038.36 9985.16 7126.63 9858.75 7176.57 C 9852.71 7178.96 9846.2 7181.389999999999 9839.2 7183.9 C 9815.41 7192.42 9785.92 7201.7 9751.54 7211.48 C 9630.09 7245.959999999999 9500.900000000001 7226.5 9397.11 7158.12 C 9383.720000000001 7149.3 9370.45 7140.09 9357.33 7130.54 C 9355.66 7129.33 9354.74 7127.5 9354.75 7125.37 C 9354.74 7123.18 9355.68 7121.29 9357.37 7120.05 C 9370 7110.77 9383.220000000001 7102.1900000000005 9396.650000000001 7094.55 L 9419.140000000001 7081.7300000000005 L 9428.410000000002 7057.570000000001 C 9429.660000000002 7054.26 9546.520000000002 6728.110000000001 9105.930000000002 6493.77 C 9069.380000000003 6474.320000000001 9026.270000000002 6471.110000000001 8987.620000000003 6484.950000000001 L 8983.220000000003 6486.6 C 8956.090000000004 6497.31 8933.270000000002 6515.820000000001 8917.290000000003 6540.120000000001 C 8909.670000000002 6551.700000000001 8902.490000000003 6564.400000000001 8895.870000000003 6577.950000000001 C 8864.250000000002 6519.870000000001 8835.670000000002 6460.750000000001 8810.930000000002 6402.18 C 8809.660000000002 6399.200000000001 8809.630000000003 6396.25 8810.820000000002 6393.400000000001 C 8812.090000000002 6390.39 8814.560000000001 6387.97 8817.570000000002 6386.780000000001 L 8817.900000000001 6386.650000000001" stroke-linecap="round" />
</g>
		<g transform="matrix(0.06175 0 0 -0.06175 34.717018677620445 -34.86205912663576)"  >
<path style="stroke: none; stroke-width: 1; stroke-dasharray: none; stroke-linecap: butt; stroke-dashoffset: 0; stroke-linejoin: miter; stroke-miterlimit: 4; fill: rgb(239,239,237); fill-rule: nonzero; opacity: 1;"  paint-order="stroke"  transform=" translate(-10164.328449546389, -6504.207175949713)" d="M 10509.2 6210.1 C 10509.800000000001 6209.860000000001 10510.6 6210 10511.300000000001 6210.46 C 10512.1 6211.01 10512.2 6211.67 10512.300000000001 6212.3 C 10513.400000000001 6294.17 10510.300000000001 6408.03 10492.500000000002 6529.7300000000005 C 10491.700000000003 6480.34 10486.500000000002 6450.93 10486.100000000002 6448.97 L 10484.200000000003 6437.91 C 10480.800000000003 6418.76 10469.100000000002 6402.349999999999 10452.100000000002 6392.87 C 10435.800000000003 6383.76 10416.400000000001 6382.11 10399.000000000002 6388.36 L 10397.000000000002 6389.099999999999 C 10393.800000000001 6390.389999999999 10390.500000000002 6391.98 10387.300000000001 6393.9 L 10377.7 6399.71 C 10285.400000000001 6455.16 10183.900000000001 6495.68 10182.900000000001 6496.08 L 10177.300000000001 6498.29 C 10150.1 6509.07 10133.500000000002 6536.9 10136.900000000001 6565.97 L 10137.600000000002 6571.93 C 10147.500000000002 6654.5 10148.200000000003 6730.570000000001 10139.600000000002 6798.43 C 10047.100000000002 6664.71 9941.050000000003 6576.110000000001 9816.160000000002 6528.25 C 9916.510000000002 6516.24 10013.500000000002 6493.74 10103.400000000001 6461.54 C 10115.400000000001 6457.24 10127.300000000001 6452.7699999999995 10139.000000000002 6448.13 C 10277.400000000001 6393.4400000000005 10401.700000000003 6313.54 10508.300000000001 6210.67 L 10509.2 6210.1" stroke-linecap="round" />
</g>
		<g transform="matrix(0.06175 0 0 -0.06175 25.311038677620445 -80.80038912663576)"  >
<path style="stroke: none; stroke-width: 1; stroke-dasharray: none; stroke-linecap: butt; stroke-dashoffset: 0; stroke-linejoin: miter; stroke-miterlimit: 4; fill: rgb(239,239,237); fill-rule: nonzero; opacity: 1;"  paint-order="stroke"  transform=" translate(-10012.009999999998, -7248.122727286036)" d="M 9281.96 7403.6 C 9436.97 7433.280000000001 9598.71 7441.780000000001 9763.74 7426.01 C 10133.1 7390.7 10463.4 7239.530000000001 10722.3 7011.9800000000005 C 10730.699999999999 7027.830000000001 10738.5 7043.47 10745.699999999999 7058.63 C 10480.599999999999 7288.12 10144.199999999999 7440.32 9768.539999999999 7476.2300000000005 C 9600.689999999999 7492.27 9436.14 7483.96 9278.32 7454.31 C 9278.67 7437.21 9279.869999999999 7420.280000000001 9281.96 7403.6" stroke-linecap="round" />
</g>
		<g transform="matrix(0.06175 0 0 -0.06175 -60.3321813223796 21.317950873364282)"  >
<path style="stroke: none; stroke-width: 1; stroke-dasharray: none; stroke-linecap: butt; stroke-dashoffset: 0; stroke-linejoin: miter; stroke-miterlimit: 4; fill: rgb(239,239,237); fill-rule: nonzero; opacity: 1;"  paint-order="stroke"  transform=" translate(-8625.121917379907, -5594.44)" d="M 9358.59 4054.35 C 8467.05 4182.8 7824.75 4990.62 7911.37 5896.86 C 7960.86 6414.59 8237.93 6855.629999999999 8634.09 7130.74 C 8633.99 7132.29 8633.79 7133.849999999999 8633.7 7135.4 C 8632.630000000001 7153.86 8632.17 7172.179999999999 8632.070000000002 7190.429999999999 C 8209.890000000001 6908.629999999999 7913.210000000002 6446.349999999999 7861.1500000000015 5901.66 C 7770.480000000001 4953.05 8455.440000000002 4109.2 9397.150000000001 3998.45 L 9358.590000000002 4054.35" stroke-linecap="round" />
</g>
		<g transform="matrix(0.06175 0 0 -0.06175 65.20072867762042 37.37750087336423)"  >
<path style="stroke: none; stroke-width: 1; stroke-dasharray: none; stroke-linecap: butt; stroke-dashoffset: 0; stroke-linejoin: miter; stroke-miterlimit: 4; fill: rgb(239,239,237); fill-rule: nonzero; opacity: 1;"  paint-order="stroke"  transform=" translate(-10657.975210470446, -5334.375)" d="M 11096 6644.84 C 11088.9 6624.21 11081.2 6604.2300000000005 11073 6584.84 C 11244 6289.28 11327.9 5939.4800000000005 11292.9 5573.64 C 11222.5 4837.54 10692.199999999999 4256.400000000001 10013.5 4087 C 9997.57 4065.43 9981.38 4044.33 9964.79 4023.91 C 10692.7 4177.95 11268.6 4788.99 11343.1 5568.84 C 11380.5 5960 11286 6333.34 11096 6644.84" stroke-linecap="round" />
</g>
</g>
</g>
</svg>